<svg width="186" height="111" viewBox="0 0 186 111" fill="none" xmlns="http://www.w3.org/2000/svg">
<path fill-rule="evenodd" clip-rule="evenodd" d="M130.905 0.845168C132.103 0.855559 133.286 0.9022 134.463 0.990505C136.099 1.09959 137.714 1.2865 139.303 1.54104C141.012 1.81635 142.689 2.16973 144.341 2.59568C160.178 6.67346 173.234 17.5875 180.194 31.9713C181.101 33.8413 181.903 35.7738 182.596 37.7581C184.617 43.5449 185.696 49.768 185.649 56.2456C185.649 56.4897 185.643 56.7338 185.633 56.9727C185.612 58.6246 185.508 60.2506 185.336 61.8609C182.242 90.561 156.703 112.57 127.196 110.737C157.438 111.438 182.533 87.6989 182.95 58.0742C182.507 57.4092 182.043 56.7546 181.569 56.1053L181.568 56.1034C180.097 61.7659 177.437 67.1273 173.974 71.8466C176.924 65.6297 179.081 60.063 179.768 53.7365C179.17 52.9854 178.557 52.2391 177.923 51.4978C174.972 48.071 171.709 44.8869 168.196 41.9878C167.011 44.8412 165.132 47.2006 161.913 51.507C164.304 48.3081 165.956 44.6791 166.836 40.8787C166.723 40.7883 166.612 40.6946 166.498 40.6048C161.402 36.6101 155.823 33.1868 149.941 30.4285C148.295 37.0672 144.637 43.5758 139.584 48.9678C144.242 43.1914 147.378 36.423 148.347 29.6961C142.752 27.2079 136.901 25.3223 130.952 24.1223C130.949 24.1218 130.946 24.1209 130.943 24.1204C129.898 26.9588 127.475 29.6501 123.693 31.3877C126.515 29.4703 128.545 26.8062 129.111 23.8499C129.114 23.8255 129.115 23.8026 129.119 23.7788C125.635 23.156 122.12 22.7768 118.61 22.6469C122.124 22.6053 125.659 22.8236 129.178 23.2849C129.34 21.7837 129.157 20.4401 128.696 19.2604C125.301 19.5461 121.932 20.1071 118.62 20.9637C121.761 19.9045 125.073 19.1308 128.422 18.6425C127.869 17.5272 127.06 16.5737 126.065 15.7883C123.555 16.8563 121.088 18.1089 118.695 19.5442C120.909 18.0705 123.26 16.7147 125.693 15.506C124.713 14.8042 123.582 14.2481 122.354 13.8487C120.844 15.2922 119.422 16.8139 118.11 18.3613C119.354 16.7781 120.656 15.2307 122.025 13.7513C120.815 13.3887 119.525 13.1658 118.205 13.0972C117.708 14.7314 117.312 16.4063 116.992 18.0779C117.201 16.4 117.466 14.7298 117.81 13.0862C116.098 13.0353 114.354 13.2343 112.694 13.6904C113.756 15.2783 114.792 16.9135 115.828 18.5949C114.63 16.9597 113.428 15.3609 112.183 13.8342C111.365 14.0882 110.571 14.4061 109.818 14.7899C110.488 14.335 111.205 13.9256 111.955 13.561C111.954 13.5595 111.953 13.558 111.952 13.5565C110.576 11.8838 109.133 10.3046 107.581 8.85013C104.648 10.6734 101.912 12.8914 99.5316 15.4523L99.5301 15.4546C103.431 16.0686 107.432 17.2103 111.46 18.816C105.33 16.7511 99.5098 15.6847 93.3967 16.1257C93.3962 16.1266 93.3948 16.1276 93.3948 16.1276C90.1387 18.8392 87.1014 22.0184 84.3611 25.691C85.5327 23.9124 86.8095 22.21 88.1734 20.5836C88.126 20.6329 88.0782 20.6824 88.0318 20.7328C88.1553 20.5567 88.2856 20.3826 88.4153 20.2081C88.4179 20.234 88.42 20.2594 88.4225 20.2853C93.0962 14.7905 98.8259 10.2224 105.309 6.89683L106.851 6.13856H106.857C110.535 4.39837 114.426 3.04768 118.49 2.14902C118.5 2.14386 118.516 2.1388 118.526 2.13875C122.507 1.26605 126.654 0.814001 130.905 0.845168ZM170.113 28.7978C170.178 30.0653 170.162 31.3572 170.053 32.6725C169.781 35.7144 169.452 37.9327 168.944 39.7929C172.944 42.8301 176.659 46.2137 179.996 49.9132L179.997 49.9143C180.051 45.5561 179.425 40.7583 177.921 35.1227C177.916 35.1123 177.914 35.0989 177.908 35.0881V35.0827C177.742 34.5509 177.56 34.0257 177.372 33.5042L177.37 33.5034C175.818 32.3554 174.218 31.2751 172.582 30.2569C171.77 29.7552 170.946 29.271 170.113 28.7978ZM150.853 21.1041C151.014 23.717 150.801 26.3766 150.254 29.0311C156.094 31.4725 161.684 34.5737 166.847 38.2463C166.99 38.3481 167.129 38.454 167.272 38.5564C167.835 34.715 167.627 30.7562 166.614 26.9336C166.304 26.7788 165.996 26.6203 165.685 26.4702C160.954 24.1742 155.963 22.3612 150.853 21.1041ZM148.222 20.5068C142.663 19.3484 136.979 18.8496 131.343 19.0937C131.341 19.0937 131.339 19.0936 131.337 19.0941C131.659 20.5346 131.586 22.0656 131.129 23.571C131.131 23.571 131.133 23.5714 131.134 23.5714C137.037 24.4961 142.882 26.1065 148.514 28.3245C148.759 25.8727 148.712 23.4312 148.331 21.0573C148.295 20.8703 148.263 20.6886 148.222 20.5068ZM168.556 20.9892C169.111 22.5211 169.524 24.1051 169.789 25.7165C170.632 26.133 171.469 26.5606 172.291 27.0104C172.968 27.3792 173.64 27.7531 174.307 28.1427C172.596 25.5703 170.664 23.1844 168.556 20.9892ZM148.368 11.5887C149.415 13.6406 150.165 15.9464 150.571 18.4808C150.613 18.7405 150.65 19.0056 150.681 19.2653C155.401 20.1692 160.048 21.5457 164.502 23.3378C164.865 23.4843 165.223 23.6422 165.583 23.7944C164.129 20.088 161.87 16.5888 158.773 13.5443C155.418 12.4301 151.927 11.783 148.368 11.5887ZM144.548 11.5503C139.283 11.7212 133.935 12.8198 128.733 14.7313C129.882 15.7557 130.677 16.979 131.119 18.3047C131.12 18.3046 131.122 18.3043 131.124 18.3043C131.525 18.2627 131.931 18.2262 132.332 18.1951C134.051 18.0548 135.786 17.9874 137.521 17.9873C140.949 17.9873 144.398 18.2576 147.815 18.7719C147.065 15.9668 145.951 13.5665 144.549 11.551L144.548 11.5503ZM106.7 8.05001C103.173 9.52527 99.7608 11.411 96.5256 13.7174C96.4579 13.7641 96.385 13.8161 96.3173 13.8681C95.8224 14.2213 95.3274 14.5899 94.8429 14.9691L94.8414 14.9706C95.1024 14.9826 95.3636 14.9963 95.6251 15.0155C96.9004 15.0992 98.1899 15.2441 99.4897 15.4478L99.49 15.447C101.241 13.3484 103.205 11.3848 105.335 9.61866C105.872 9.16675 106.419 8.73568 106.982 8.30454C106.888 8.21623 106.794 8.13313 106.7 8.05001ZM135.865 4.67872C131.707 6.37216 127.659 9.0993 124.033 12.3044C124.03 12.3075 124.026 12.3105 124.023 12.3131C125.712 12.7635 127.118 13.4502 128.234 14.3136C133.141 12.1412 138.309 10.6093 143.354 10.0026C143.353 10.001 143.352 9.99949 143.351 9.99799C141.278 7.57211 138.719 5.82153 135.87 4.67872H135.865ZM120.767 4.315C118.506 4.5955 116.255 5.0216 114.031 5.59298C114.02 5.59298 114.01 5.59808 113.999 5.60325C112.233 6.30452 110.493 7.14621 108.81 8.11241C108.758 8.13838 108.711 8.16951 108.659 8.20068H108.665C110.009 9.83177 111.254 11.5461 112.452 13.3278C112.454 13.3299 112.455 13.3318 112.456 13.3339C114.196 12.5542 116.106 12.0327 118.089 11.8364C118.714 9.21416 119.569 6.67853 120.768 4.315H120.767ZM131.504 4.0034C128.583 3.8112 125.647 3.84236 122.721 4.10156C120.908 6.33939 119.598 8.97836 118.63 11.7808C119.071 11.7507 119.515 11.7346 119.961 11.7382C121.259 11.7793 122.443 11.9345 123.52 12.1822C123.521 12.1812 123.522 12.1809 123.523 12.1799C126.586 9.07882 129.951 6.32036 133.645 4.19059C132.947 4.11268 132.254 4.05547 131.556 4.00872C131.54 4.00358 131.52 4.0034 131.504 4.0034ZM144.58 6.40869C145.581 7.39044 146.477 8.48648 147.258 9.68639L147.259 9.68753C149.285 9.61013 151.311 9.66607 153.311 9.87281C153.308 9.87126 153.304 9.8698 153.301 9.86825H153.286C151.525 8.9904 149.733 8.21101 147.889 7.52535C147.883 7.52535 147.878 7.52011 147.873 7.52003C146.784 7.11486 145.69 6.74114 144.58 6.40869ZM108.07 7.49948C108.07 7.49948 108.076 7.49961 108.081 7.50481C108.091 7.49962 108.102 7.48909 108.112 7.48388C108.096 7.48906 108.081 7.4943 108.07 7.49948Z" fill="white"/>
<path d="M72.9406 54.677C76.0117 54.6771 78.5013 57.1589 78.5013 60.2211V76.8554H72.9406V62.9936C72.9406 61.4627 71.6954 60.2211 70.1601 60.2211H62.2387C61.3234 60.2211 60.4665 60.6704 59.9481 61.423L49.3072 76.8554H42.3561L55.9912 57.08C57.0284 55.5757 58.7423 54.6763 60.5735 54.6762L72.9406 54.677Z" fill="white"/>
<path fill-rule="evenodd" clip-rule="evenodd" d="M114.646 54.6766C117.718 54.6766 120.207 57.159 120.208 60.2211V76.8554H114.646V71.3105H89.6234V76.8554H84.0623V60.2211C84.0624 57.159 86.5521 54.6771 89.6226 54.677L114.646 54.6766ZM92.4039 60.2211C90.8681 60.2211 89.6234 61.4627 89.6234 62.9936V65.766H114.646V62.9936C114.646 61.4628 113.402 60.2212 111.866 60.2211H92.4039Z" fill="white"/>
<path fill-rule="evenodd" clip-rule="evenodd" d="M161.913 60.2211H131.329V62.9939H156.511C159.495 62.9939 161.913 65.4053 161.913 68.3802V71.4684C161.913 74.4433 159.495 76.8554 156.511 76.8554H125.768V54.6766H161.913V60.2211ZM131.329 71.3105H154.963C155.73 71.3105 156.353 70.6899 156.353 69.9248C156.353 69.1592 155.73 68.5385 154.963 68.5384H131.329V71.3105Z" fill="white"/>
<path d="M78.5013 32.5469H63.209V49.1808H57.6484V32.5469H42.3561V27.0021H78.5013V32.5469Z" fill="white"/>
<path d="M18.7227 43.1318L29.8444 27.0021H36.7951V49.1804H31.2344V35.0667L21.5032 49.1804H15.9422L6.21093 35.0667V49.1804H0.649902V27.0021H7.601L18.7227 43.1318Z" fill="white"/>
<path d="M90.2945 24.5823C86.9853 28.3827 90.4993 35.8789 97.5188 42.2339C98.542 43.1596 99.7471 43.9991 101.01 44.7492C104.317 46.9771 111.424 49.1198 111.457 49.1298L84.0623 49.1804V42.8347L89.2177 40.1589C88.9812 39.7563 88.7593 39.3496 88.5561 38.9403C88.4701 38.7387 88.3892 38.5375 88.3085 38.3307C87.6453 36.6062 87.0891 34.7953 86.9047 32.9643L86.9016 32.9183C86.7604 29.8602 87.784 26.9339 90.2945 24.5823Z" fill="white"/>
<path d="M111.748 23.0989C112.88 21.9707 114.715 21.9707 115.846 23.0989C116.978 24.2271 116.978 26.0567 115.846 27.1854C114.869 28.1599 113.368 28.2908 112.248 27.5823L110.438 29.9963C116.918 36.1571 119.775 43.5736 116.821 46.8238C115.402 48.3833 112.89 48.7069 109.91 47.9755C111.423 47.9963 112.67 47.5762 113.491 46.6739C115.954 43.9634 113.685 37.8615 108.429 32.6748L104.64 37.7281C106.555 40.1581 107.232 42.6682 106.118 43.8946C104.707 45.446 100.964 44.3535 97.7562 41.4551C94.5486 38.556 93.0919 34.9481 94.5021 33.3965C95.6468 32.1375 98.3278 32.6195 101.012 34.3945L106.097 30.6031C100.507 26.1316 94.4176 24.6074 92.007 27.2577C91.2699 28.0706 90.9544 29.1859 91.0211 30.4901C90.2089 27.8513 90.3652 25.5639 91.6884 24.1094C94.6027 20.9028 102.118 22.915 108.833 28.5635L111.35 26.6867C110.639 25.5698 110.771 24.0733 111.748 23.0989Z" fill="white"/>
</svg>
